<?xml version="1.0" encoding="UTF-8"?>
<svg width="48" height="48" version="1.1" viewBox="0 0 128 128" xmlns="http://www.w3.org/2000/svg">
 <g fill="#666">
  <path d="m28.803 27.998c-2.4946 1.3471-3.692 3.8417-3.9913 8.731-0.19956 2.1952-0.69848 5.1388-1.0976 6.4859-0.99783 3.4924-3.4924 6.9848-5.3384 7.7332-2.0954 0.84816-2.4946 1.846-2.4946 6.1866 0.0499 6.2864-1.9458 5.7874 23.998 5.7874s23.948 0.49892 23.948-5.987c0-4.2907-0.29935-4.8894-3.2928-6.4859-2.7939-1.4968-5.6877-8.8807-5.6877-14.469 0-3.5922-1.397-6.4859-3.9913-7.8829-1.7462-0.99783-2.4946-1.0976-10.976-1.0976-8.1822 0-9.4794 0.14968-11.076 0.99783z"/>
  <path d="m28.803 73.476c-2.4946 1.3471-3.692 3.8417-3.9913 8.731-0.19956 2.1952-0.69848 5.1388-1.0976 6.4859-0.99783 3.4924-3.4924 6.9848-5.3384 7.7332-2.0954 0.84816-2.4946 1.846-2.4946 6.1866 0.0499 6.2864-1.9458 5.7874 23.998 5.7874s23.948 0.49892 23.948-5.987c0-4.2907-0.29935-4.8894-3.2928-6.4859-2.7939-1.4968-5.6877-8.8807-5.6877-14.469 0-3.5922-1.397-6.4859-3.9913-7.8829-1.7462-0.99783-2.4946-1.0976-10.976-1.0976-8.1822 0-9.4794 0.14968-11.076 0.99783z"/>
  <path d="m81.107 73.476c-2.4946 1.3471-3.692 3.8417-3.9913 8.731-0.19956 2.1952-0.69848 5.1388-1.0976 6.4859-0.99783 3.4924-3.4924 6.9848-5.3384 7.7332-2.0954 0.84815-2.4946 1.846-2.4946 6.1866 0.0499 6.2864-1.9458 5.7874 23.998 5.7874 25.944 0 23.948 0.49891 23.948-5.987 0-4.2907-0.29935-4.8894-3.2928-6.4859-2.7939-1.4968-5.6876-8.8807-5.6876-14.469 0-3.5922-1.397-6.4859-3.9913-7.8829-1.7462-0.99783-2.4946-1.0976-10.976-1.0976-8.1822 0-9.4794 0.14968-11.076 0.99783z"/>
  <rect x="86.834" y="24.966" width="10.667" height="40" ry="5.3333"/>
  <rect transform="rotate(90)" x="39.632" y="-112.17" width="10.667" height="40" ry="5.3333"/>
 </g>
</svg>
